<svg xmlns="http://www.w3.org/2000/svg" width="83.615" height="86.243" viewBox="0.263 0.545 83.615 86.243"><path fill="#6290CB" stroke="#000" stroke-width="1.98" d="M16.795 66.078c-.478 2.71-1.058 5.255-2.723 7.498-1.757 2.367-4.317 4.704-7.445 4.673-1.712-.015-7.192-2.365-4.763-4.717.964-.93 2.902-.619 4.067-.258 2.711.84 3.995-.128 5.114-1.307 2.318-2.436 2.66-4.083 3.73-6.26.115-.234 1.61.425 1.858.344l.162.027Z"/><path fill="#B36FAD" stroke="#000" stroke-width="1.98" d="M28.976 70.153c.39 3.348.917 6.512 2.793 9.383 1.982 3.026 4.946 6.07 8.782 6.26 2.097.101 8.98-2.38 6.173-5.433-1.113-1.21-3.506-.971-4.961-.611-3.383.836-4.884-.448-6.17-1.967-2.662-3.153-2.963-5.191-4.116-7.939-.124-.293-2.003.404-2.303.29l-.198.017Z"/><path fill="#12C549" stroke="#000" stroke-width="1.98" d="M47.795 62.11c1.97 2.737 3.974 5.241 7.008 6.833 3.204 1.678 7.28 2.897 10.72 1.194 1.883-.932 6.685-6.45 2.744-7.75-1.559-.514-3.751.754-5.156 1.277-1.818.675-3.67 1.12-5.654.983-4.03-.277-5.286-2.18-7.631-4.018-.253-.199-1.553 1.33-1.87 1.376l-.161.105Z"/><path fill="#FAF132" stroke="#000" stroke-width="1.98" d="M16.795 20.209c-.478-2.71-1.058-5.255-2.723-7.498-1.757-2.367-4.317-4.705-7.445-4.673-1.712.016-7.192 2.365-4.763 4.716.964.93 2.902.619 4.067.26 2.711-.84 3.995.128 5.114 1.306 2.318 2.438 2.66 4.084 3.73 6.262.115.233 1.61-.426 1.858-.347l.162-.026Z"/><path fill="#12C549" stroke="#000" stroke-width="1.98" d="M28.976 17.179c.39-3.347.917-6.51 2.793-9.382 1.982-3.026 4.945-6.07 8.782-6.259 2.097-.102 8.98 2.379 6.173 5.432-1.113 1.21-3.506.97-4.961.61-3.383-.835-4.884.45-6.17 1.967-2.662 3.154-2.963 5.192-4.116 7.94-.124.293-2.003-.404-2.303-.29l-.198-.018Z"/><path fill="#B36FAD" stroke="#000" stroke-width="1.98" d="M50.435 26.52c1.737-2.08 3.816-5.11 6.836-5.089 3.474.025 6.56 3.616 10.095 2.975 4.396-.796.162-6.133-1.718-7.35-3.35-2.177-6.998-1.492-10.386.15-2.415 1.17-5.731 3.01-6.729 5.711-.113.306-.352.606-.509.894.963.674 1.628 1.765 2.355 2.542l.056.167Z"/><path fill="#F8B018" d="M29.61 69.309c-4.442 0-8.866-.957-12.79-2.768l-.225-.103-.004-.006-.15-.07c-7.303-3.504-11.663-9.32-11.663-15.56 0-5.687 5.648-6.799 10.569-7.132l.06-.004.059.003c1.39.074 2.971.109 4.975.109 1.392 0 2.837-.016 4.322-.033 1.578-.018 3.201-.036 4.856-.036 5.27 0 10.817-.04 16.483-.12l9.87-.019-.021 1.013c-.115 5.381-1.862 10.362-5.192 14.804l-.03.04-.034.037c-5.267 5.705-14.13 9.845-21.076 9.845h-.008Z"/><path fill="undefined" d="M54.96 44.562c-.096 4.482-1.384 9.416-4.993 14.23-4.935 5.347-13.573 9.527-20.348 9.527h-.008c-4.45 0-8.715-.987-12.377-2.677a.455.455 0 0 0-.362-.174h-.002C10.305 62.32 5.768 56.884 5.768 50.802c0-4.378 3.875-5.753 9.646-6.145 1.576.084 3.26.11 5.027.11 2.873 0 5.967-.068 9.179-.068 6.189 0 11.923-.056 16.496-.12l8.845-.017m2.024-1.985-2.027.004-8.846.018c-5.685.08-11.226.12-16.492.12-1.662 0-3.291.018-4.867.035a382.76 382.76 0 0 1-4.312.033c-1.985 0-3.55-.034-4.922-.107l-.12-.006-.12.008c-3.142.213-11.491.78-11.491 8.12 0 6.611 4.545 12.745 12.161 16.42l.008.012.363.167.1.048h.003c4.05 1.865 8.61 2.85 13.188 2.85 7.205 0 16.374-4.275 21.811-10.163l.069-.075.06-.08c3.457-4.61 5.27-9.784 5.39-15.377l.044-2.027-2.024 1.985Z"/><path fill="#1EA9FF" d="M36.242 47.88c1.943 0 3.703.715 4.978 1.872 1.275 1.156 2.063 2.754 2.063 4.516 0 1.763-.788 3.36-2.063 4.517-1.275 1.156-3.035 1.872-4.978 1.872-1.942 0-3.703-.716-4.978-1.872-1.274-1.157-2.063-2.754-2.063-4.517 0-1.762.789-3.36 2.063-4.516 1.275-1.157 3.036-1.872 4.978-1.872Z"/><path fill="#B36FAD" d="M15.229 46.048c2.186 0 4.166.77 5.6 2.015 1.433 1.245 2.321 2.964 2.321 4.86 0 1.898-.888 3.617-2.321 4.861-1.434 1.245-3.414 2.015-5.6 2.015-2.186 0-4.166-.77-5.6-2.015-1.434-1.244-2.321-2.963-2.321-4.86 0-1.897.887-3.616 2.321-4.86 1.434-1.246 3.414-2.016 5.6-2.016Z"/><path fill="#D12027" d="M27.001 60.25c.941 0 1.794.347 2.411.91.617.561 1 1.337 1 2.193 0 .856-.383 1.631-1 2.193s-1.47.91-2.41.91c-.941 0-1.794-.348-2.411-.91-.618-.562-1-1.337-1-2.193 0-.856.382-1.632 1-2.194a3.576 3.576 0 0 1 2.41-.91Z"/><path fill="#129E49" d="M43.594 60.2c-2.523.385-4.312 2.381-3.997 4.464.062.401.206.771.403 1.112 2.69-1.221 5.264-2.813 7.456-4.63-.972-.78-2.373-1.174-3.862-.947Z"/><path fill="#FAF123" d="M43.325 47.572c-.153 2.55 2.02 4.756 4.856 4.925 2.836.17 5.258-1.76 5.41-4.31.085-1.407-.542-2.707-1.595-3.62l-5.881.012-1.32.017c-.847.768-1.4 1.805-1.47 2.976Z"/><path fill="#F8B018" d="M29.62 43.017c-1.78 0-3.524-.023-5.214-.046a347.234 347.234 0 0 0-4.59-.041c-1.484 0-2.745.022-3.853.066l-.053.002-.054-.003c-5.157-.35-11.077-1.47-11.077-7.068 0-10.033 11.376-18.508 24.842-18.508 6.983 0 15.862 4.011 21.112 9.537l.052.055.044.064c.167.241 4.108 6.014 4.97 13.958l.112 1.037-9.74.555c-5.703.26-11.268.392-16.551.392Z"/><path fill="undefined" d="M29.62 18.409c6.802 0 15.452 4.026 20.395 9.228 0 0 3.955 5.716 4.8 13.502l-8.7.497c-4.574.21-10.307.392-16.495.392-3.445 0-6.755-.088-9.804-.088-1.352 0-2.654.017-3.893.068-6.05-.411-10.155-1.778-10.155-6.081 0-9.552 11.181-17.518 23.852-17.518m0-1.98c-14.002 0-25.832 8.928-25.832 19.497 0 7.242 8.719 7.834 12 8.056l.108.008.107-.004a95.167 95.167 0 0 1 3.813-.066c1.465 0 2.977.02 4.577.041 1.69.023 3.438.047 5.227.047 5.298 0 10.878-.133 16.586-.395l8.722-.497 2.08-.119-.225-2.072c-.889-8.191-4.967-14.165-5.14-14.415l-.088-.127-.105-.11c-5.42-5.704-14.6-9.845-21.83-9.845v1.98Z"/><path fill="#129E49" d="M20.212 32.689c-3.705 0-6.71 2.606-6.71 5.823 0 1.274.476 2.445 1.276 3.402.373.035.755.066 1.145.093 2.917-.118 6.187-.055 9.655-.01.84-.972 1.343-2.176 1.343-3.485 0-3.217-3.004-5.823-6.71-5.823Z"/><path fill="#6290CB" d="M13.057 29.711c0-1.732-.878-3.278-2.26-4.343-3.014 2.848-4.885 6.363-5.014 10.144.187.015.374.023.564.023 3.705-.001 6.71-2.607 6.71-5.824Z"/><path fill="#B36FAD" d="M41.594 37.158c-1.886 0-3.412 1.389-3.412 3.102 0 .605.198 1.167.532 1.643 2.093-.056 4.067-.125 5.888-.202.254-.43.403-.917.403-1.441 0-1.715-1.527-3.102-3.41-3.102Z"/><path fill="#FAF123" d="M28.976 25.437c-.077 1.274-.721 2.394-1.7 3.174-.98.78-2.294 1.221-3.71 1.136-1.416-.084-2.668-.678-3.547-1.57-.88-.892-1.385-2.081-1.31-3.355.077-1.273.721-2.393 1.7-3.174.98-.78 2.294-1.22 3.71-1.136 1.416.085 2.669.679 3.548 1.57.879.893 1.385 2.082 1.309 3.355Z"/><path fill="#D12027" d="M32.849 26.158c-.217 3.59 2.325 6.663 5.68 6.865 3.352.2 6.243-2.548 6.46-6.14a6.787 6.787 0 0 0-.98-3.961 34.69 34.69 0 0 0-5.93-2.843c-2.803.44-5.041 2.937-5.23 6.08Z"/><path fill="#F05623" stroke="#000" stroke-width="1.98" d="M67.487 37.158s6.653-7.136 8.848-6.05c2.194 1.086 4.264 4.436 5.784 2.62 1.523-1.818-1.54-5.936-5.83-5.912-4.29.024-10.562 5.146-10.562 5.146l1.76 4.196ZM67.86 50.07s6.651 7.137 8.845 6.05c2.194-1.085 4.263-4.436 5.786-2.618 1.522 1.817-1.54 5.934-5.83 5.91-4.29-.023-10.561-5.146-10.561-5.146l1.76-4.195Z"/><path fill="#F8B018" d="M53.761 59.006c-4.56 0-6.185-8.08-6.185-15.642 0-9.793 2.312-15.64 6.185-15.64 8.481 0 15.643 7.162 15.643 15.64 0 8.478-7.163 15.642-15.643 15.642Z"/><path fill="undefined" d="M53.765 28.713c7.986 0 14.649 6.665 14.649 14.65 0 7.99-6.667 14.652-14.653 14.652-3.435 0-5.195-6.666-5.195-14.652 0-7.987 1.65-14.65 5.195-14.65h.004m0-1.98h-.004c-4.56 0-7.176 6.061-7.176 16.63 0 10.415 2.682 16.632 7.176 16.632 4.392 0 8.555-1.744 11.722-4.91 3.167-3.166 4.911-7.33 4.911-11.722 0-4.391-1.744-8.554-4.91-11.72-3.166-3.166-7.328-4.91-11.72-4.91v1.98Z"/><path fill="#231F20" d="M63.721 46.853c2.886-.761 2.957-5.982-.222-6.323-.714-.074-.965.873-.546 1.32.481.511 1.278.92 1.146 1.757-.097.632-.423 1.423-1.022 1.719-.868.43-.25 1.764.644 1.527Z"/><path fill="#FFF" d="M59.288 48.591c-.26-1.724-2.168-2.874-3.9-2.616-1.732.262-3.213 1.913-2.955 3.643.258 1.725 2.159 2.874 3.892 2.616 1.73-.26 3.22-1.914 2.963-3.643Z"/><path fill="#231F20" d="M57.887 47.47c.456 0 .868.174 1.166.455.3.28.484.67.484 1.098 0 .428-.184.816-.483 1.097s-.711.456-1.167.456c-.455 0-.868-.175-1.166-.456a1.503 1.503 0 0 1-.484-1.097c0-.429.185-.817.484-1.098.298-.281.71-.456 1.166-.456Z"/><path fill="#231F20" d="M60.763 48.286c-.395-2.639-2.919-4.447-5.634-4.043-2.718.406-4.604 2.875-4.207 5.514.395 2.64 2.918 4.45 5.634 4.044 2.718-.406 4.605-2.875 4.207-5.515Zm-4.438 3.948c-1.733.258-3.634-.891-3.892-2.616-.26-1.73 1.223-3.38 2.956-3.643 1.731-.258 3.638.892 3.9 2.616.256 1.729-1.234 3.383-2.964 3.643Z"/><path fill="#FFF" d="M58.894 37.367c-.262-1.725-2.169-2.874-3.9-2.616-1.733.261-3.214 1.912-2.956 3.642.259 1.725 2.16 2.874 3.892 2.616 1.73-.26 3.22-1.914 2.964-3.642Z"/><path fill="#231F20" d="M57.492 36.245c.456 0 .868.174 1.167.455.299.281.484.67.484 1.098 0 .428-.185.817-.484 1.098a1.697 1.697 0 0 1-1.167.455c-.455 0-.868-.174-1.166-.455a1.503 1.503 0 0 1-.484-1.098c0-.428.185-.817.484-1.098a1.697 1.697 0 0 1 1.166-.455Z"/><path fill="#231F20" d="M60.37 37.063c-.396-2.64-2.92-4.448-5.636-4.044-2.717.406-4.603 2.875-4.206 5.514.395 2.64 2.918 4.45 5.634 4.044 2.718-.406 4.604-2.875 4.207-5.514Zm-4.44 3.946c-1.733.258-3.633-.89-3.892-2.616-.259-1.73 1.223-3.38 2.956-3.642 1.731-.259 3.638.891 3.9 2.616.257 1.728-1.234 3.382-2.964 3.642Z"/></svg>
